<svg xmlns="http://www.w3.org/2000/svg" width="239" height="240" viewBox="0 0 239 240">
<g>
<path d="M 151.29 145.05 L 154.50 147.03 L 151.24 146.80 C147.74,146.56 146.00,145.39 146.00,143.30 C146.00,142.59 145.55,142.00 145.00,142.00 C142.43,142.00 145.24,131.38 148.05,130.49 C149.14,130.14 149.80,129.48 149.51,129.02 C149.23,128.56 151.12,126.23 153.71,123.84 C163.69,114.66 166.14,112.04 165.60,111.17 C165.30,110.67 165.94,109.46 167.02,108.48 C169.38,106.34 169.54,104.39 167.50,102.36 C166.68,101.53 166.00,101.18 166.00,101.58 C166.00,101.98 165.11,101.51 164.02,100.52 C162.94,99.54 162.26,98.39 162.52,97.97 C162.78,97.55 162.29,96.94 161.43,96.61 C160.57,96.28 160.15,95.56 160.50,95.01 C160.84,94.45 160.45,94.00 159.64,94.00 C158.83,94.00 156.74,92.20 155.00,90.00 C153.25,87.79 151.40,86.25 150.89,86.57 C150.37,86.89 150.07,86.70 150.23,86.14 C150.38,85.59 149.69,84.54 148.71,83.80 C147.54,82.93 146.85,80.99 146.74,78.23 C146.61,74.87 146.20,74.00 144.76,74.00 C143.55,74.00 142.75,74.99 142.35,77.02 C142.01,78.68 141.35,80.28 140.87,80.58 C140.39,80.88 140.00,82.86 140.00,84.99 C140.00,88.81 138.02,92.02 135.68,91.98 C134.92,91.97 134.99,91.66 135.88,91.10 C136.64,90.62 136.97,89.75 136.61,89.18 C136.26,88.61 136.43,87.85 137.00,87.50 C137.57,87.15 137.77,86.44 137.46,85.93 C137.14,85.42 137.41,85.00 138.05,85.00 C138.69,85.00 138.97,84.37 138.68,83.60 C138.38,82.83 138.44,81.89 138.82,81.51 C139.19,81.14 139.54,80.53 139.59,80.17 C139.63,79.80 140.01,78.75 140.41,77.83 C140.82,76.91 141.31,75.33 141.50,74.33 C141.69,73.32 141.93,72.28 142.04,72.00 C142.15,71.72 142.18,71.16 142.12,70.75 C142.05,70.34 142.45,70.00 143.00,70.00 C144.52,70.00 144.19,65.70 142.39,62.09 C139.67,56.64 131.15,55.08 127.17,59.31 C125.98,60.59 125.00,62.16 125.00,62.81 C125.00,63.47 124.32,64.00 123.50,64.00 C121.94,64.00 121.58,62.26 122.59,59.63 C122.91,58.78 125.23,57.10 127.74,55.88 C131.71,53.96 132.70,53.83 135.40,54.91 C137.11,55.58 139.18,56.26 140.00,56.40 C141.72,56.70 145.18,63.37 145.37,66.74 C145.44,67.98 145.86,69.00 146.31,69.00 C146.75,69.00 146.83,69.56 146.47,70.25 C146.12,70.94 146.66,70.48 147.69,69.22 C150.43,65.87 161.85,64.06 162.78,66.83 C162.99,67.47 163.79,68.00 164.55,68.00 C165.31,68.00 166.40,68.87 166.96,69.93 C168.42,72.66 168.25,73.45 166.51,72.01 C165.69,71.33 165.24,70.42 165.51,69.98 C165.78,69.54 165.10,69.42 164.00,69.71 C162.90,70.00 162.00,69.77 162.00,69.20 C162.00,68.63 160.68,67.87 159.07,67.52 C152.88,66.15 147.07,72.28 148.57,78.60 C149.03,80.50 153.34,85.45 161.14,93.00 C167.67,99.32 173.02,105.18 173.01,106.01 C173.00,106.83 167.19,113.30 160.08,120.38 C152.98,127.45 146.98,133.98 146.76,134.87 C145.91,138.23 148.06,143.07 151.29,145.05 ZM 6.91 178.91 C7.52,181.89 7.89,184.43 7.75,184.56 C7.22,185.05 5.15,182.19 5.66,181.67 C5.96,181.38 5.83,180.54 5.38,179.82 C4.93,179.09 4.44,177.82 4.29,177.00 C3.95,175.03 4.05,32.11 4.39,29.50 C5.02,24.82 6.22,21.00 7.08,21.00 C7.59,21.00 7.89,20.66 7.76,20.25 C7.43,19.24 18.12,6.00 19.25,6.00 C19.74,6.00 20.82,5.32 21.64,4.50 C23.57,2.57 25.10,2.57 24.36,4.50 C24.05,5.32 23.22,6.00 22.54,6.00 C20.15,6.00 10.29,17.86 8.01,23.48 L 5.76 29.02 L 5.79 101.26 C5.80,149.69 6.17,175.28 6.91,178.91 ZM 123.31 231.75 C120.00,234.82 115.07,234.72 111.59,231.50 C110.11,230.12 109.26,228.99 109.70,228.97 C110.14,228.95 109.44,228.05 108.14,226.97 C106.84,225.89 106.17,224.99 106.64,224.97 C107.11,224.95 106.44,224.05 105.14,222.97 C103.84,221.89 103.11,221.00 103.51,221.00 C103.91,221.00 102.83,219.56 101.12,217.81 C99.40,216.06 98.00,214.14 98.00,213.55 C98.00,212.12 94.40,209.94 89.50,208.39 L 85.50 207.13 L 89.02 207.07 C93.27,206.99 99.23,209.99 99.59,212.39 C99.73,213.35 101.23,215.46 102.92,217.08 C104.61,218.69 106.00,220.40 106.00,220.86 C106.00,221.33 107.60,223.80 109.55,226.36 C112.83,230.66 113.42,231.00 117.55,231.00 C120.00,231.00 122.00,230.61 122.00,230.13 C122.00,229.65 125.60,225.54 130.00,221.00 C134.40,216.46 138.00,212.38 138.00,211.95 C138.00,210.71 144.53,207.00 146.62,207.04 C147.89,207.07 147.31,207.72 144.83,209.02 C142.82,210.09 137.69,215.13 133.45,220.23 C129.20,225.33 124.64,230.51 123.31,231.75 ZM 115.37 155.92 C112.57,158.13 109.50,158.40 104.33,156.90 C102.09,156.25 100.45,154.71 98.72,151.61 C96.47,147.59 96.38,146.93 97.58,143.45 C98.30,141.36 98.86,139.39 98.82,139.08 C98.50,135.97 99.26,131.88 100.38,130.76 C101.14,130.01 102.06,127.98 102.44,126.26 C103.16,122.97 106.00,119.60 106.00,122.03 C106.00,122.74 104.40,128.25 102.45,134.29 C98.91,145.26 98.68,148.72 101.30,152.01 C103.56,154.86 112.00,157.40 112.00,155.24 C112.00,154.82 113.01,154.03 114.25,153.49 C115.49,152.94 116.43,152.05 116.35,151.50 C116.27,150.95 116.70,149.60 117.31,148.50 C117.92,147.40 118.33,146.16 118.21,145.75 C118.10,145.34 118.50,145.00 119.11,145.00 C119.72,145.00 119.95,144.32 119.64,143.50 C119.32,142.68 119.50,142.00 120.03,142.00 C121.27,142.00 121.25,143.57 119.95,148.25 C119.37,150.31 118.45,152.00 117.89,152.00 C117.34,152.00 117.14,152.41 117.45,152.92 C117.76,153.43 116.83,154.78 115.37,155.92 ZM 81.00 146.41 C81.00,146.61 80.07,147.01 78.93,147.31 C76.70,147.89 71.30,143.72 70.79,141.01 C70.63,140.18 69.52,139.06 68.31,138.51 C65.25,137.10 53.87,126.01 54.48,125.03 C54.75,124.59 52.52,122.36 49.50,120.09 C44.60,116.38 39.69,110.00 41.75,110.00 C42.19,110.00 49.95,117.46 59.00,126.59 C68.04,135.71 76.69,143.82 78.22,144.61 C79.75,145.40 81.00,146.21 81.00,146.41 ZM 42.00 106.24 C42.00,109.21 40.31,109.98 39.35,107.47 C38.51,105.29 42.98,97.33 45.74,96.07 C47.02,95.49 48.32,94.34 48.63,93.51 C48.95,92.69 49.54,92.21 49.94,92.46 C50.34,92.71 52.77,90.68 55.35,87.96 C57.92,85.23 60.44,83.00 60.94,83.00 C61.44,83.00 62.64,81.22 63.60,79.05 C64.56,76.87 65.67,75.29 66.06,75.54 C66.46,75.79 67.85,74.62 69.14,72.96 C71.51,69.92 77.74,65.41 78.52,66.18 C78.74,66.41 70.62,74.89 60.46,85.04 C45.43,100.06 42.00,103.99 42.00,106.24 ZM 113.22 99.75 C110.14,109.79 107.25,118.00 106.81,118.00 C105.64,118.00 105.81,113.24 107.00,112.50 C107.55,112.16 108.01,110.90 108.02,109.69 C108.03,108.49 109.20,104.35 110.62,100.50 C112.03,96.65 113.57,91.36 114.04,88.74 C114.78,84.57 117.40,80.07 118.46,81.13 C118.67,81.33 116.31,89.71 113.22,99.75 ZM 39.00 207.20 C39.00,209.22 27.27,206.41 25.79,204.03 C25.16,203.03 24.07,202.42 23.37,202.69 C21.76,203.31 19.06,201.42 15.55,197.25 C13.08,194.30 13.00,194.00 14.77,194.00 C15.83,194.00 17.81,195.01 19.15,196.25 C26.49,203.02 28.16,204.00 32.38,204.00 C36.30,204.00 39.00,205.30 39.00,207.20 ZM 200.76 0.00 L 239.00 0.00 L 221.25 0.05 C203.84,0.10 203.58,0.13 207.50,1.74 C209.70,2.64 211.65,3.74 211.83,4.19 C212.02,4.63 212.72,5.00 213.40,5.00 C215.02,5.00 222.72,11.61 224.10,14.18 C226.05,17.83 221.21,15.25 215.43,9.56 C211.23,5.42 209.44,4.33 206.88,4.33 C204.66,4.33 203.18,3.65 202.19,2.17 L 200.76 0.00 ZM 129.70 119.34 C128.28,122.45 126.64,125.00 126.06,125.00 C124.66,125.00 124.69,123.27 126.09,122.80 C126.69,122.60 127.26,121.22 127.34,119.72 C127.43,118.22 127.89,117.00 128.36,117.00 C128.83,117.00 128.96,116.34 128.65,115.53 C128.34,114.72 128.53,113.79 129.06,113.46 C129.59,113.13 129.79,112.47 129.50,112.00 C129.21,111.53 129.41,110.87 129.94,110.54 C130.47,110.21 130.66,109.28 130.35,108.47 C130.04,107.66 130.33,107.00 131.00,107.00 C131.67,107.00 131.96,106.33 131.64,105.50 C131.32,104.68 131.55,104.00 132.14,104.00 C132.73,104.00 132.97,103.37 132.68,102.60 C132.38,101.83 132.42,100.91 132.76,100.57 C133.11,100.22 133.49,99.24 133.62,98.39 C133.74,97.54 134.14,96.09 134.49,95.17 C135.09,93.63 135.20,93.62 136.06,95.15 C136.70,96.29 136.25,98.45 134.55,102.28 C133.22,105.30 132.16,109.10 132.21,110.72 C132.26,112.35 131.13,116.22 129.70,119.34 ZM 88.49 127.99 C91.93,131.79 89.41,129.99 85.00,125.50 C82.57,123.03 80.13,121.00 79.57,121.00 C77.90,121.00 67.00,109.69 67.00,107.96 C67.00,107.07 68.22,105.26 69.72,103.92 C71.22,102.59 71.87,102.24 71.18,103.15 C68.19,107.07 68.87,108.95 75.61,115.33 C79.19,118.72 82.65,121.50 83.28,121.50 C83.92,121.50 84.94,122.51 85.56,123.74 C86.17,124.98 87.49,126.89 88.49,127.99 ZM 193.59 116.75 C188.83,120.86 188.48,118.68 193.15,114.01 C195.41,111.74 196.38,109.76 196.59,106.93 C196.77,104.53 196.46,103.00 195.78,103.00 C195.17,103.00 194.97,102.70 195.34,102.32 C195.71,101.95 195.04,100.60 193.84,99.33 C191.45,96.78 191.84,94.99 194.26,97.40 C195.09,98.23 196.04,98.70 196.38,98.45 C196.72,98.20 196.78,98.30 196.51,98.66 C196.24,99.02 196.51,99.91 197.12,100.64 C200.42,104.62 198.74,112.29 193.59,116.75 ZM 208.94 204.86 C203.58,207.17 197.00,208.44 197.00,207.17 C197.00,206.27 202.29,204.59 204.75,204.72 C205.44,204.75 206.00,204.35 206.00,203.83 C206.00,203.31 206.45,203.16 207.00,203.50 C207.55,203.84 208.00,203.67 208.00,203.13 C208.00,202.03 218.92,196.59 219.66,197.33 C220.43,198.09 213.75,202.79 208.94,204.86 ZM 228.88 185.06 C227.71,187.78 226.36,190.00 225.88,190.00 C224.54,190.00 224.83,187.69 226.46,185.36 C227.26,184.22 228.03,181.69 228.16,179.75 C228.32,177.32 228.80,176.37 229.70,176.71 C231.52,177.41 231.33,179.36 228.88,185.06 ZM 171.87 137.39 C170.78,139.78 168.00,141.78 168.00,140.16 C168.00,138.82 174.60,132.94 175.32,133.65 C175.69,134.03 176.00,133.66 176.00,132.84 C176.00,131.01 180.44,126.70 182.67,126.37 C183.57,126.24 182.12,128.30 179.42,130.98 C176.73,133.65 174.19,135.62 173.77,135.36 C173.35,135.10 172.50,136.01 171.87,137.39 ZM 91.76 144.67 C90.02,146.41 83.42,147.74 84.40,146.16 C84.80,145.52 85.94,145.00 86.94,145.00 C88.57,145.00 91.87,142.21 91.25,141.35 C91.11,141.16 91.06,140.77 91.12,140.50 C91.19,140.23 91.31,139.48 91.38,138.83 C91.44,138.19 92.03,137.49 92.68,137.27 C94.27,136.74 93.50,142.93 91.76,144.67 ZM 15.56 0.00 L 117.10 0.00 C33.77,0.00 33.44,0.01 31.67,2.07 C29.79,4.26 27.92,4.25 27.18,2.03 C26.88,1.13 27.26,0.89 28.33,1.30 C29.21,1.64 30.20,1.48 30.53,0.96 C30.89,0.36 25.20,0.00 15.56,0.00 ZM 95.28 72.25 C95.72,73.42 95.45,74.00 94.47,74.00 C93.18,74.00 92.53,72.74 93.25,71.60 C93.74,70.83 89.66,67.00 88.35,67.00 C87.61,67.00 87.00,66.32 87.00,65.50 C87.00,64.68 87.14,64.00 87.30,64.00 C88.19,64.00 94.73,70.75 95.28,72.25 ZM 181.64 84.57 C182.53,85.94 183.05,87.28 182.78,87.56 C182.18,88.15 176.00,81.97 176.00,80.77 C176.00,79.32 179.93,81.96 181.64,84.57 ZM 164.70 144.06 C162.50,146.11 161.00,146.56 161.00,145.15 C161.00,143.98 164.42,141.00 165.77,141.00 C166.38,141.00 167.21,141.56 167.60,142.25 C168.00,142.94 167.98,143.19 167.55,142.81 C167.13,142.43 165.85,142.99 164.70,144.06 ZM 189.05 91.84 C190.30,92.85 190.91,93.93 190.41,94.23 C189.35,94.87 185.00,92.17 185.00,90.88 C185.00,89.47 186.60,89.85 189.05,91.84 ZM 94.00 135.43 C94.00,135.75 93.57,136.00 93.04,136.00 C91.58,136.00 89.81,132.23 90.95,131.53 C91.78,131.02 94.00,133.86 94.00,135.43 Z" fill="rgb(148,105,231)"/>
<path d="M 6.91 178.91 C6.17,175.28 5.80,149.69 5.79,101.26 L 5.76 29.02 L 8.01 23.48 C10.29,17.86 20.15,6.00 22.54,6.00 C23.22,6.00 24.05,5.32 24.36,4.50 C24.66,3.72 24.59,3.25 24.27,3.10 C24.55,3.04 24.82,3.00 25.07,3.00 C26.13,3.00 27.00,2.50 27.00,1.89 C27.00,1.77 27.03,1.66 27.08,1.57 C27.08,1.69 27.12,1.85 27.18,2.03 C27.92,4.25 29.79,4.26 31.67,2.07 C33.44,0.01 33.77,0.00 117.10,0.00 L 200.76 0.00 L 202.19 2.17 C203.18,3.65 204.66,4.33 206.88,4.33 C209.44,4.33 211.23,5.42 215.43,9.56 C219.81,13.87 223.65,16.40 224.40,15.78 C226.63,20.02 228.70,25.73 230.96,33.50 C231.81,36.42 232.04,56.72 231.81,108.50 C231.61,155.30 231.53,171.25 230.87,178.07 C230.75,177.38 230.35,176.97 229.70,176.71 C228.80,176.37 228.32,177.32 228.16,179.75 C228.03,181.69 227.26,184.22 226.46,185.36 C224.83,187.69 224.54,190.00 225.88,190.00 C225.91,190.00 225.94,189.99 225.98,189.97 C224.17,192.57 222.00,195.09 219.66,197.33 L 219.66 197.33 C218.92,196.59 208.00,202.03 208.00,203.13 C208.00,203.67 207.55,203.84 207.00,203.50 C206.45,203.16 206.00,203.31 206.00,203.83 C206.00,204.35 205.44,204.75 204.75,204.72 C202.29,204.59 197.00,206.27 197.00,207.17 C197.00,207.38 197.19,207.53 197.52,207.60 L 174.53 208.00 C156.29,208.31 147.06,208.75 144.14,209.46 C144.40,209.28 144.63,209.13 144.83,209.02 C147.31,207.72 147.89,207.07 146.62,207.04 C144.53,207.00 138.00,210.71 138.00,211.95 C138.00,212.38 134.40,216.46 130.00,221.00 C125.60,225.54 122.00,229.65 122.00,230.13 C122.00,230.61 120.00,231.00 117.55,231.00 C113.42,231.00 112.83,230.66 109.55,226.36 C107.60,223.80 106.00,221.33 106.00,220.86 C106.00,220.40 104.61,218.69 102.92,217.08 C101.23,215.46 99.73,213.35 99.59,212.39 C99.23,209.99 93.27,206.99 89.02,207.07 L 85.50 207.13 L 89.50 208.39 C90.54,208.72 91.53,209.08 92.43,209.45 C89.20,208.55 82.71,208.35 61.50,207.99 L 38.76 207.61 C38.92,207.51 39.00,207.37 39.00,207.20 C39.00,205.30 36.30,204.00 32.38,204.00 C28.16,204.00 26.49,203.02 19.15,196.25 C17.81,195.01 15.83,194.00 14.77,194.00 C13.31,194.00 13.11,194.21 14.48,195.94 C12.54,193.67 10.82,191.11 9.32,188.25 C8.45,186.58 7.54,185.09 6.84,184.13 C7.22,184.51 7.58,184.73 7.75,184.56 C7.89,184.43 7.52,181.89 6.91,178.91 ZM 151.29 145.05 C149.98,144.25 148.85,142.97 148.02,141.51 C148.85,142.97 149.98,144.24 151.29,145.03 C155.58,147.65 158.32,147.51 161.27,144.42 C161.10,144.70 161.00,144.95 161.00,145.15 C161.00,146.56 162.50,146.11 164.70,144.06 C165.85,142.99 167.13,142.43 167.55,142.81 C167.98,143.19 168.00,142.94 167.60,142.25 C167.21,141.56 166.38,141.00 165.77,141.00 C165.38,141.00 164.81,141.25 164.20,141.64 C164.75,141.24 165.21,141.00 165.47,141.00 C166.10,141.00 173.29,134.24 181.45,125.98 C193.59,113.70 195.90,111.11 196.45,108.10 C196.07,110.33 195.09,112.07 193.15,114.01 C188.48,118.68 188.83,120.86 193.59,116.75 C198.74,112.29 200.42,104.62 197.12,100.64 C196.51,99.91 196.24,99.02 196.51,98.66 C196.78,98.30 196.72,98.20 196.38,98.45 C196.04,98.70 195.09,98.23 194.26,97.40 C191.84,94.99 191.45,96.78 193.84,99.33 C195.04,100.60 195.71,101.95 195.34,102.32 C195.33,102.34 195.31,102.36 195.30,102.37 C195.32,102.31 195.35,102.25 195.39,102.18 C195.65,101.76 192.52,98.11 188.28,93.81 C189.18,94.25 190.02,94.46 190.41,94.23 C190.91,93.93 190.30,92.85 189.05,91.84 C186.80,90.01 185.26,89.55 185.03,90.57 C183.72,89.27 182.33,87.88 180.92,86.47 C181.85,87.26 182.59,87.74 182.78,87.56 C183.05,87.28 182.53,85.94 181.64,84.57 C179.93,81.96 176.00,79.32 176.00,80.77 C176.00,81.14 176.59,81.99 177.42,82.96 C175.18,80.71 173.11,78.62 171.56,77.05 C167.74,73.17 164.03,70.00 163.31,70.00 C162.90,70.00 162.53,69.87 162.29,69.66 C162.65,69.86 163.28,69.90 164.00,69.71 C165.10,69.42 165.78,69.54 165.51,69.98 C165.24,70.42 165.69,71.33 166.51,72.01 C168.25,73.45 168.42,72.66 166.96,69.93 C166.40,68.87 165.31,68.00 164.55,68.00 C163.79,68.00 162.99,67.47 162.78,66.83 C161.85,64.06 150.43,65.87 147.69,69.22 C146.66,70.48 146.12,70.94 146.47,70.25 C146.83,69.56 146.75,69.00 146.31,69.00 C145.86,69.00 145.44,67.98 145.37,66.74 C145.18,63.37 141.72,56.70 140.00,56.40 C139.18,56.26 137.11,55.58 135.40,54.91 C132.70,53.83 131.71,53.96 127.74,55.88 C125.23,57.10 122.91,58.78 122.59,59.63 C121.58,62.26 121.94,64.00 123.50,64.00 C123.84,64.00 124.15,63.91 124.40,63.76 C122.48,67.43 120.73,72.16 120.01,75.96 C119.80,77.04 118.96,80.12 117.72,84.43 C118.26,82.42 118.54,81.21 118.46,81.13 C117.40,80.07 114.78,84.57 114.04,88.74 C113.57,91.36 112.03,96.65 110.62,100.50 C109.20,104.35 108.03,108.49 108.02,109.69 C108.01,110.90 107.55,112.16 107.00,112.50 C105.81,113.24 105.64,118.00 106.81,118.00 C107.12,118.00 108.59,114.06 110.50,108.31 C110.46,108.42 110.43,108.53 110.40,108.64 C108.38,115.09 106.71,120.43 105.32,124.87 C105.75,123.35 106.00,122.31 106.00,122.03 C106.00,119.60 103.16,122.97 102.44,126.26 C102.06,127.98 101.14,130.01 100.38,130.76 C99.26,131.88 98.50,135.97 98.82,139.08 C98.86,139.39 98.30,141.36 97.58,143.45 C96.38,146.93 96.47,147.59 98.72,151.61 C100.45,154.71 102.09,156.25 104.33,156.90 C109.50,158.40 112.57,158.13 115.37,155.92 C116.83,154.78 117.76,153.43 117.45,152.92 C117.14,152.41 117.34,152.00 117.89,152.00 C118.45,152.00 119.37,150.31 119.95,148.25 C121.25,143.57 121.27,142.00 120.03,142.00 C119.50,142.00 119.32,142.68 119.64,143.50 C119.32,142.68 119.41,142.00 119.83,142.00 C120.73,142.00 125.06,129.03 125.27,125.73 C125.28,125.42 125.33,125.11 125.39,124.82 C125.56,124.93 125.78,125.00 126.06,125.00 C126.64,125.00 128.28,122.45 129.70,119.34 C131.13,116.22 132.26,112.35 132.21,110.72 C132.16,109.10 133.22,105.30 134.55,102.28 C136.25,98.45 136.70,96.29 136.06,95.15 C135.73,94.55 135.51,94.19 135.33,94.06 C135.73,93.39 135.83,92.54 135.53,92.04 C135.51,92.02 135.50,92.00 135.49,91.97 C135.54,91.98 135.61,91.98 135.68,91.98 C138.02,92.02 140.00,88.81 140.00,84.99 C140.00,82.86 140.39,80.88 140.87,80.58 C141.35,80.28 142.01,78.68 142.35,77.02 C142.75,74.99 143.55,74.00 144.76,74.00 C146.20,74.00 146.61,74.87 146.74,78.23 C146.85,80.99 147.54,82.93 148.71,83.80 C149.69,84.54 150.38,85.59 150.23,86.14 C150.07,86.70 150.37,86.89 150.89,86.57 C151.40,86.25 153.25,87.79 155.00,90.00 C156.74,92.20 158.83,94.00 159.64,94.00 C160.45,94.00 160.84,94.45 160.50,95.01 C160.15,95.56 160.57,96.28 161.43,96.61 C162.29,96.94 162.78,97.55 162.52,97.97 C162.26,98.39 162.94,99.54 164.02,100.52 C165.11,101.51 166.00,101.98 166.00,101.58 C166.00,101.18 166.68,101.53 167.50,102.36 C169.54,104.39 169.38,106.34 167.02,108.48 C165.94,109.46 165.30,110.67 165.60,111.17 C166.14,112.04 163.69,114.66 153.71,123.84 C151.12,126.23 149.23,128.56 149.51,129.02 C149.80,129.48 149.14,130.14 148.05,130.49 C145.24,131.38 142.43,142.00 145.00,142.00 C145.55,142.00 146.00,142.59 146.00,143.30 C146.00,145.39 147.74,146.56 151.24,146.80 L 154.50 147.03 ZM 42.00 106.24 C42.00,105.66 42.23,104.97 42.82,104.01 C42.20,105.04 42.00,105.79 42.00,106.49 C42.00,109.05 44.52,112.02 58.75,126.29 C65.18,132.74 71.45,138.78 75.21,142.19 C71.59,138.99 65.39,133.04 59.00,126.59 C49.95,117.46 42.19,110.00 41.75,110.00 C39.69,110.00 44.60,116.38 49.50,120.09 C52.52,122.36 54.75,124.59 54.48,125.03 C53.87,126.01 65.25,137.10 68.31,138.51 C69.52,139.06 70.63,140.18 70.79,141.01 C71.30,143.72 76.70,147.89 78.93,147.31 C80.04,147.02 80.95,146.63 81.00,146.43 C82.27,147.03 83.00,146.94 84.33,146.31 C83.88,147.65 90.08,146.35 91.76,144.67 C93.50,142.93 94.27,136.74 92.68,137.27 C92.44,137.35 92.21,137.50 92.01,137.69 C92.07,137.61 92.13,137.53 92.20,137.47 C92.49,137.18 92.33,136.31 91.87,135.33 C92.24,135.73 92.65,136.00 93.04,136.00 C93.57,136.00 94.00,135.75 94.00,135.43 C94.00,133.86 91.78,131.02 90.95,131.53 C90.81,131.62 90.72,131.74 90.66,131.90 C90.56,131.43 88.73,129.28 86.20,126.70 C89.83,130.28 91.61,131.43 88.49,127.99 C87.49,126.89 86.17,124.98 85.56,123.74 C84.94,122.51 83.92,121.50 83.28,121.50 C82.65,121.50 79.19,118.72 75.61,115.33 C68.87,108.95 68.19,107.07 71.18,103.15 C71.47,102.78 71.52,102.61 71.39,102.65 C73.73,100.16 76.82,97.03 80.20,93.77 C92.64,81.78 93.40,80.83 93.34,77.27 C93.32,75.63 93.24,74.28 93.07,73.15 C93.28,73.65 93.78,74.00 94.47,74.00 C95.45,74.00 95.72,73.42 95.28,72.25 C94.73,70.75 88.19,64.00 87.30,64.00 C87.14,64.00 87.00,64.68 87.00,65.50 C87.00,65.78 87.07,66.04 87.19,66.27 C82.21,64.08 79.52,66.20 60.75,84.85 C54.41,91.15 50.15,95.45 47.32,98.51 C50.14,95.43 54.34,91.15 60.46,85.04 C70.62,74.89 78.74,66.41 78.52,66.18 C77.74,65.41 71.51,69.92 69.14,72.96 C67.85,74.62 66.46,75.79 66.06,75.54 C65.67,75.29 64.56,76.87 63.60,79.05 C62.64,81.22 61.44,83.00 60.94,83.00 C60.44,83.00 57.92,85.23 55.35,87.96 C52.77,90.68 50.34,92.71 49.94,92.46 C49.54,92.21 48.95,92.69 48.63,93.51 C48.32,94.34 47.02,95.49 45.74,96.07 C42.98,97.33 38.51,105.29 39.35,107.47 C40.31,109.98 42.00,109.21 42.00,106.24 ZM 171.87 137.39 C172.50,136.01 173.35,135.10 173.77,135.36 C174.19,135.62 176.73,133.65 179.42,130.98 C182.12,128.30 183.57,126.24 182.67,126.37 C180.44,126.70 176.00,131.01 176.00,132.84 C176.00,133.66 175.69,134.03 175.32,133.65 C174.60,132.94 168.00,138.82 168.00,140.16 C168.00,141.78 170.78,139.78 171.87,137.39 ZM 34.18 207.53 L 31.50 207.49 L 25.56 204.58 C24.44,204.03 23.36,203.43 22.31,202.77 C22.71,202.83 23.06,202.81 23.37,202.69 C24.07,202.42 25.16,203.03 25.79,204.03 C26.63,205.38 30.76,206.87 34.18,207.53 ZM 208.74 204.94 L 203.55 207.50 L 199.70 207.57 C202.06,207.25 205.59,206.28 208.74,204.94 ZM 91.28 139.61 C91.22,140.00 91.17,140.33 91.12,140.50 C91.06,140.77 91.11,141.16 91.25,141.35 C91.87,142.21 88.57,145.00 86.94,145.00 L 86.93 145.00 C87.74,144.59 88.52,144.21 89.00,143.99 C89.82,143.60 90.56,142.77 90.62,142.14 C90.69,141.51 90.86,140.77 91.00,140.50 C91.09,140.32 91.20,139.97 91.28,139.61 ZM 92.95 72.49 C92.45,69.91 91.35,68.53 89.11,67.24 C90.80,68.09 93.67,70.95 93.25,71.60 C93.06,71.90 92.97,72.20 92.95,72.49 ZM 207.50 1.74 C203.58,0.13 203.84,0.10 221.25,0.05 C203.86,0.10 203.58,0.14 207.50,1.73 C209.70,2.63 211.73,3.62 212.00,3.93 C212.17,4.13 212.81,4.55 213.64,5.03 C213.55,5.01 213.47,5.00 213.40,5.00 C212.72,5.00 212.02,4.63 211.83,4.19 C211.65,3.74 209.70,2.64 207.50,1.74 ZM 215.66 6.14 C217.67,7.23 219.45,8.68 221.09,10.68 C219.37,9.00 217.27,7.24 215.66,6.14 ZM 107.86 155.61 C110.11,156.06 112.00,155.97 112.00,155.24 C112.00,154.82 112.96,154.03 114.14,153.49 C115.31,152.94 116.26,152.05 116.24,151.50 C116.21,150.95 116.70,149.60 117.31,148.50 C116.70,149.60 116.27,150.95 116.35,151.50 C116.43,152.05 115.49,152.94 114.25,153.49 C113.01,154.03 112.00,154.82 112.00,155.24 C112.00,156.27 110.10,156.23 107.86,155.61 ZM 99.72 148.80 C99.91,149.20 100.15,149.62 100.41,150.16 C100.93,151.27 101.78,152.39 102.70,153.27 C102.12,152.87 101.64,152.44 101.30,152.01 C100.51,151.02 99.98,150.02 99.72,148.80 ZM 125.02 62.62 C125.17,61.89 126.08,60.47 127.17,59.31 C127.73,58.72 128.37,58.24 129.08,57.87 C130.77,56.95 132.86,56.69 134.92,57.01 C138.01,57.48 140.98,59.26 142.39,62.09 C141.00,59.28 138.00,57.50 134.92,57.01 C132.89,56.71 130.80,56.97 129.08,57.87 C128.43,58.23 127.84,58.69 127.34,59.25 C126.59,60.08 125.80,61.25 125.02,62.62 ZM 6.20 183.34 C6.00,183.12 5.83,183.00 5.73,183.00 C5.26,183.00 5.16,182.55 5.50,182.00 C5.53,181.95 5.56,181.89 5.59,181.83 C5.53,182.16 5.82,182.77 6.20,183.34 ZM 72.19 114.64 C75.25,117.86 78.69,121.00 79.57,121.00 C80.13,121.00 82.57,123.03 85.00,125.50 C85.05,125.55 85.09,125.59 85.14,125.64 C82.47,123.02 80.03,121.00 79.50,121.00 C78.65,121.00 75.24,117.86 72.19,114.64 ZM 228.88 185.06 C229.61,183.37 230.14,182.00 230.47,180.91 C230.17,182.37 229.79,183.21 229.29,184.28 C229.08,184.74 228.86,185.19 228.62,185.65 C228.70,185.46 228.79,185.26 228.88,185.06 ZM 95.65 211.06 C97.07,211.93 97.94,212.78 98.00,213.47 C97.93,212.96 96.96,211.97 95.65,211.06 ZM 90.63 132.00 C90.53,132.37 90.60,132.90 90.79,133.45 C90.36,132.60 90.26,132.00 90.60,132.00 C90.61,132.00 90.62,132.00 90.63,132.00 ZM 5.63 181.71 C5.81,181.14 5.70,180.33 5.34,179.75 C4.91,179.06 4.44,177.82 4.29,177.00 C4.44,177.82 4.93,179.09 5.38,179.82 C5.83,180.54 5.96,181.38 5.66,181.67 C5.65,181.68 5.64,181.70 5.63,181.71 ZM 134.13 96.23 C133.90,96.99 133.70,97.82 133.62,98.39 C133.49,99.24 133.11,100.22 132.76,100.57 C133.11,100.22 133.53,98.98 133.71,97.80 C133.79,97.31 133.94,96.76 134.13,96.23 ZM 135.37 91.47 C135.40,91.20 135.63,91.01 136.02,91.00 C135.97,91.03 135.93,91.07 135.88,91.10 C135.66,91.24 135.48,91.36 135.37,91.47 ZM 136.74 89.85 C136.72,89.75 136.69,89.64 136.65,89.53 C136.58,89.36 136.54,89.17 136.52,88.99 C136.54,89.06 136.57,89.12 136.61,89.18 C136.73,89.38 136.77,89.61 136.74,89.85 ZM 101.81 136.32 C101.29,138.04 100.87,139.49 100.53,140.72 C100.87,139.42 101.29,137.97 101.81,136.32 ZM 128.36 117.00 C127.89,117.00 127.45,118.18 127.35,119.63 C127.43,118.19 127.89,117.00 128.36,117.00 ZM 148.02 141.51 C146.81,139.39 146.25,136.87 146.76,134.87 C146.25,136.86 146.81,139.38 148.02,141.51 ZM 67.00 107.95 L 67.00 107.96 C67.00,108.22 67.25,108.70 67.68,109.34 C67.25,108.71 67.00,108.23 67.00,107.97 C67.00,107.96 67.00,107.96 67.00,107.95 ZM 127.24 120.58 C127.29,120.30 127.32,120.01 127.34,119.72 C127.33,120.01 127.29,120.30 127.24,120.58 Z" fill="rgb(150,96,253)"/>
<path d="M 0.00 120.00 L 0.00 0.00 L 15.56 0.00 C25.20,0.00 30.89,0.36 30.53,0.96 C30.20,1.48 29.28,1.66 28.47,1.35 C27.66,1.04 27.00,1.28 27.00,1.89 C27.00,2.50 26.13,3.00 25.07,3.00 C24.01,3.00 22.47,3.67 21.64,4.50 C20.82,5.32 19.74,6.00 19.25,6.00 C18.12,6.00 7.43,19.24 7.76,20.25 C7.89,20.66 7.59,21.00 7.08,21.00 C6.22,21.00 5.02,24.82 4.39,29.50 C4.05,32.11 3.95,175.03 4.29,177.00 C4.44,177.82 4.91,179.06 5.34,179.75 C5.77,180.44 5.84,181.45 5.50,182.00 C5.16,182.55 5.26,183.00 5.73,183.00 C6.20,183.00 7.81,185.36 9.32,188.25 C13.24,195.73 18.70,201.23 25.56,204.58 L 31.50 207.49 L 61.50 207.99 C89.04,208.46 91.77,208.66 94.75,210.47 C96.54,211.55 98.00,212.92 98.00,213.53 C98.00,214.13 99.40,216.06 101.12,217.81 C102.83,219.56 103.91,221.00 103.51,221.00 C103.11,221.00 103.84,221.89 105.14,222.97 C106.44,224.05 107.11,224.95 106.64,224.97 C106.17,224.99 106.84,225.89 108.14,226.97 C109.44,228.05 110.14,228.95 109.70,228.97 C109.26,228.99 110.11,230.12 111.59,231.50 C115.07,234.72 120.00,234.82 123.31,231.75 C124.64,230.51 129.19,225.34 133.43,220.25 C137.67,215.16 142.12,210.43 143.32,209.75 C144.86,208.86 153.98,208.35 174.53,208.00 L 203.55 207.50 L 210.11 204.27 C217.57,200.59 225.64,192.18 229.29,184.28 C231.49,179.51 231.50,179.29 231.81,108.50 C232.04,56.72 231.81,36.42 230.96,33.50 C226.03,16.54 221.97,9.39 215.32,5.96 C213.77,5.16 212.27,4.25 212.00,3.93 C211.73,3.62 209.70,2.63 207.50,1.73 C203.58,0.14 203.86,0.10 221.25,0.05 L 239.00 0.00 L 239.00 120.00 L 239.00 240.00 L 119.50 240.00 L 0.00 240.00 L 0.00 120.00 ZM 104.78 154.71 C103.25,154.11 101.33,152.10 100.41,150.16 C98.47,146.08 97.66,149.42 110.40,108.64 C115.18,93.31 119.50,78.61 120.01,75.96 C121.09,70.23 124.54,62.38 127.34,59.25 C131.08,55.06 139.70,56.69 142.39,62.09 C144.19,65.70 144.52,70.00 143.00,70.00 C142.45,70.00 142.05,70.34 142.12,70.75 C142.18,71.16 142.15,71.72 142.04,72.00 C141.93,72.28 141.69,73.32 141.50,74.33 C141.31,75.33 140.82,76.91 140.41,77.83 C140.01,78.75 139.63,79.80 139.59,80.17 C139.54,80.53 139.19,81.14 138.82,81.51 C138.44,81.89 138.38,82.83 138.68,83.60 C138.97,84.37 138.69,85.00 138.05,85.00 C137.41,85.00 137.14,85.42 137.46,85.93 C137.77,86.44 137.59,87.13 137.06,87.46 C136.53,87.79 136.34,88.72 136.65,89.53 C136.96,90.34 136.69,91.00 136.05,91.00 C135.41,91.00 135.17,91.47 135.53,92.04 C135.88,92.62 135.69,93.67 135.11,94.37 C134.52,95.08 133.89,96.62 133.71,97.80 C133.53,98.98 133.10,100.23 132.76,100.57 C132.42,100.91 132.38,101.83 132.68,102.60 C132.97,103.37 132.73,104.00 132.14,104.00 C131.55,104.00 131.32,104.68 131.64,105.50 C131.96,106.33 131.67,107.00 131.00,107.00 C130.33,107.00 130.04,107.66 130.35,108.47 C130.66,109.28 130.47,110.21 129.94,110.54 C129.41,110.87 129.21,111.53 129.50,112.00 C129.79,112.47 129.59,113.13 129.06,113.46 C128.53,113.79 128.34,114.72 128.65,115.53 C128.96,116.34 128.83,117.00 128.36,117.00 C127.89,117.00 127.43,118.18 127.35,119.63 C127.26,121.08 126.79,122.54 126.30,122.88 C125.81,123.22 125.34,124.50 125.27,125.73 C125.06,129.03 120.73,142.00 119.83,142.00 C119.41,142.00 119.32,142.68 119.64,143.50 C119.95,144.32 119.72,145.00 119.11,145.00 C118.50,145.00 118.10,145.34 118.21,145.75 C118.33,146.16 117.92,147.40 117.31,148.50 C116.70,149.60 116.21,150.95 116.24,151.50 C116.26,152.05 115.31,152.94 114.14,153.49 C112.96,154.03 112.00,154.82 112.00,155.24 C112.00,156.29 108.05,156.01 104.78,154.71 ZM 78.50 144.97 C76.85,143.93 67.96,135.53 58.75,126.29 C44.52,112.02 42.00,109.05 42.00,106.49 C42.00,103.91 44.69,100.80 60.75,84.85 C80.59,65.14 82.47,63.89 88.07,66.68 C92.28,68.79 93.24,70.72 93.34,77.27 C93.40,80.83 92.64,81.78 80.20,93.77 C72.94,100.77 67.00,107.16 67.00,107.97 C67.00,109.65 77.89,121.00 79.50,121.00 C80.09,121.00 83.01,123.47 86.00,126.50 C88.99,129.52 91.06,132.00 90.60,132.00 C90.14,132.00 90.47,133.07 91.33,134.39 C92.19,135.70 92.58,137.08 92.20,137.47 C91.81,137.85 91.44,138.58 91.38,139.08 C91.31,139.59 91.14,140.23 91.00,140.50 C90.86,140.77 90.69,141.51 90.62,142.14 C90.56,142.77 89.82,143.60 89.00,143.99 C88.18,144.37 86.49,145.21 85.26,145.84 C82.45,147.30 82.15,147.26 78.50,144.97 ZM 151.29 145.03 C148.06,143.07 145.91,138.23 146.76,134.87 C146.98,133.98 152.98,127.45 160.08,120.38 C167.19,113.30 173.00,106.83 173.01,106.01 C173.02,105.18 167.67,99.32 161.14,93.00 C153.34,85.45 149.03,80.50 148.57,78.60 C147.07,72.28 152.88,66.15 159.07,67.52 C160.68,67.87 162.00,68.57 162.00,69.08 C162.00,69.59 162.59,70.00 163.31,70.00 C164.03,70.00 167.74,73.17 171.56,77.05 C175.38,80.93 182.41,87.98 187.20,92.73 C191.98,97.48 195.67,101.73 195.39,102.18 C195.11,102.63 195.33,103.00 195.89,103.00 C196.44,103.00 196.76,104.78 196.59,106.98 C196.31,110.63 195.04,112.22 181.45,125.98 C173.29,134.24 166.10,141.00 165.47,141.00 C164.84,141.00 163.13,142.35 161.66,144.00 C158.55,147.49 155.77,147.77 151.29,145.03 Z" fill="rgb(254,253,253)"/>
</g>
</svg>